<?xml version="1.0" encoding="UTF-8"?>
<!DOCTYPE svg PUBLIC "-//W3C//DTD SVG 1.1//EN" "http://www.w3.org/Graphics/SVG/1.1/DTD/svg11.dtd">
<svg xmlns="http://www.w3.org/2000/svg" version="1.1" width="225px" height="225px" style="shape-rendering:geometricPrecision; text-rendering:geometricPrecision; image-rendering:optimizeQuality; fill-rule:evenodd; clip-rule:evenodd" xmlns:xlink="http://www.w3.org/1999/xlink">
<g><path style="opacity:0.999" fill="#1c1c1c" d="M 60.5,30.5 C 61.5,30.1667 62.1667,29.5 62.5,28.5C 63.609,28.4431 64.609,28.1098 65.5,27.5C 67.153,27.3404 68.4863,26.6737 69.5,25.5C 70.766,24.9101 72.0993,24.4101 73.5,24C 99.1667,23.3333 124.833,23.3333 150.5,24C 154.729,25.1146 158.729,26.7813 162.5,29C 163.833,30.3333 163.833,31.6667 162.5,33C 129.167,33.6667 95.8333,33.6667 62.5,33C 61.244,32.5831 60.5774,31.7498 60.5,30.5 Z"/></g>
<g><path style="opacity:0.545" fill="#c0c0c0" d="M 69.5,25.5 C 68.4863,26.6737 67.153,27.3404 65.5,27.5C 66.287,25.8958 67.6203,25.2291 69.5,25.5 Z"/></g>
<g><path style="opacity:0.026" fill="#e4e4e4" d="M 62.5,28.5 C 62.1667,29.5 61.5,30.1667 60.5,30.5C 59.7611,30.631 59.0944,30.4643 58.5,30C 59.5634,28.8118 60.8967,28.3118 62.5,28.5 Z"/></g>
<g><path style="opacity:1" fill="#090909" d="M 161.5,99.5 C 128.094,99.8259 94.7602,99.4925 61.5,98.5C 60.3376,79.0043 60.1709,59.3376 61,39.5C 61.5,39 62,38.5 62.5,38C 95.5,37.3333 128.5,37.3333 161.5,38C 162,38.5 162.5,39 163,39.5C 163.667,59.1667 163.667,78.8333 163,98.5C 162.617,99.056 162.117,99.3893 161.5,99.5 Z M 76.5,46.5 C 74.0336,47.6341 71.367,47.8007 68.5,47C 66.5188,46.3946 66.1854,45.3946 67.5,44C 73.5073,43.7997 79.5073,44.1331 85.5,45C 87.9901,51.1682 85.9901,53.8349 79.5,53C 78.0735,50.9546 77.0735,48.7879 76.5,46.5 Z"/></g>
<g><path style="opacity:0.238" fill="#a8a8a8" d="M 61.5,98.5 C 94.7602,99.4925 128.094,99.8259 161.5,99.5C 145.003,100.167 128.337,100.5 111.5,100.5C 94.4864,100.5 77.8197,99.8328 61.5,98.5 Z"/></g>
<g><path style="opacity:0.517" fill="#8f8f8f" d="M 134.5,109.5 C 119.836,108.187 105.17,108.187 90.5,109.5C 91.6085,108.71 92.9419,108.21 94.5,108C 100.5,107.833 106.5,107.667 112.5,107.5C 119.481,107.888 126.314,107.888 133,107.5C 133.717,108.044 134.217,108.711 134.5,109.5 Z"/></g>
<g><path style="opacity:0.999" fill="#0f0f0f" d="M 134.5,109.5 C 136.95,109.298 139.283,109.631 141.5,110.5C 142.514,111.674 143.847,112.34 145.5,112.5C 148.244,113.072 149.077,114.738 148,117.5C 146.005,119.747 143.505,120.747 140.5,120.5C 137.933,120.721 135.599,121.388 133.5,122.5C 133.167,122.5 132.833,122.5 132.5,122.5C 129.287,122.19 126.287,122.523 123.5,123.5C 115.844,124.636 108.178,124.636 100.5,123.5C 98.3926,122.532 96.0593,122.198 93.5,122.5C 86.8855,122.577 81.2188,120.41 76.5,116C 77.0717,113.926 78.405,112.76 80.5,112.5C 82.403,112.204 84.0697,111.537 85.5,110.5C 86.9187,109.549 88.5853,109.216 90.5,109.5C 105.17,108.187 119.836,108.187 134.5,109.5 Z"/></g>
<g><path style="opacity:0.569" fill="#888888" d="M 85.5,110.5 C 84.0697,111.537 82.403,112.204 80.5,112.5C 81.6354,110.787 83.302,110.12 85.5,110.5 Z"/></g>
<g><path style="opacity:0.016" fill="#dfdfdf" d="M 145.5,112.5 C 143.847,112.34 142.514,111.674 141.5,110.5C 141.435,110.062 141.601,109.728 142,109.5C 143.518,110.163 144.685,111.163 145.5,112.5 Z"/></g>
<g><path style="opacity:0.12" fill="#bcbcbc" d="M 140.5,120.5 C 138.562,122.163 136.228,122.829 133.5,122.5C 135.599,121.388 137.933,120.721 140.5,120.5 Z"/></g>
<g><path style="opacity:0.999" fill="#0e0e0e" d="M 79.5,128.5 C 80.5676,129.434 81.901,129.768 83.5,129.5C 86.5885,130.785 89.9219,131.451 93.5,131.5C 109.904,131.972 126.238,131.306 142.5,129.5C 143.791,129.737 144.791,129.404 145.5,128.5C 148.388,127.821 150.888,126.488 153,124.5C 153.383,125.056 153.883,125.389 154.5,125.5C 156.027,125.573 157.027,124.906 157.5,123.5C 158.496,123.586 159.329,123.252 160,122.5C 160.175,125.157 160.008,127.824 159.5,130.5C 159.31,133.855 158.31,136.855 156.5,139.5C 154.896,140.287 154.229,141.62 154.5,143.5C 153.557,146.109 151.89,148.109 149.5,149.5C 148.094,149.973 147.427,150.973 147.5,152.5C 146.167,152.5 145.5,153.167 145.5,154.5C 142.35,157.579 138.683,159.913 134.5,161.5C 133.508,161.328 132.842,161.662 132.5,162.5C 132.167,162.5 131.833,162.5 131.5,162.5C 129.597,162.796 127.93,163.463 126.5,164.5C 125.432,165.434 124.099,165.768 122.5,165.5C 116.167,165.5 109.833,165.5 103.5,165.5C 102.833,165.5 102.167,165.5 101.5,165.5C 99.8984,163.926 97.8984,163.259 95.5,163.5C 92.5824,163.418 89.9157,162.085 87.5,159.5C 87.0269,158.094 86.0269,157.427 84.5,157.5C 83.8333,157.5 83.5,157.167 83.5,156.5C 83.0269,155.094 82.0269,154.427 80.5,154.5C 77.4275,152.431 75.0941,149.764 73.5,146.5C 73.0679,145.29 72.4013,144.29 71.5,143.5C 70.0937,143.027 69.427,142.027 69.5,140.5C 69.5979,138.447 68.9313,136.78 67.5,135.5C 67.5979,133.447 66.9313,131.78 65.5,130.5C 64.5078,127.221 64.3412,123.888 65,120.5C 69.3297,124.081 74.163,126.748 79.5,128.5 Z"/></g>
<g><path style="opacity:0.224" fill="#bfbfbf" d="M 93.5,122.5 C 96.0593,122.198 98.3926,122.532 100.5,123.5C 98.0693,124.315 95.736,123.982 93.5,122.5 Z"/></g>
<g><path style="opacity:0.298" fill="#b8b8b8" d="M 123.5,123.5 C 126.287,122.523 129.287,122.19 132.5,122.5C 131.122,123.234 129.622,123.901 128,124.5C 126.644,123.62 125.144,123.286 123.5,123.5 Z"/></g>
<g><path style="opacity:0.675" fill="#828282" d="M 157.5,123.5 C 157.027,124.906 156.027,125.573 154.5,125.5C 154.973,124.094 155.973,123.427 157.5,123.5 Z"/></g>
<g><path style="opacity:0.061" fill="#c3c3c3" d="M 159.5,130.5 C 160.008,127.824 160.175,125.157 160,122.5C 159.329,123.252 158.496,123.586 157.5,123.5C 158.254,121.495 159.421,120.828 161,121.5C 161.781,124.817 161.281,127.817 159.5,130.5 Z"/></g>
<g><path style="opacity:0.227" fill="#c0c0c0" d="M 83.5,129.5 C 81.901,129.768 80.5676,129.434 79.5,128.5C 81.3747,126.922 82.7081,127.255 83.5,129.5 Z"/></g>
<g><path style="opacity:0.278" fill="#c5c5c5" d="M 145.5,128.5 C 144.791,129.404 143.791,129.737 142.5,129.5C 143.105,127.519 144.105,127.185 145.5,128.5 Z"/></g>
<g><path style="opacity:0.141" fill="#b5b5b5" d="M 83.5,129.5 C 87.1224,129.322 90.4557,129.989 93.5,131.5C 89.9219,131.451 86.5885,130.785 83.5,129.5 Z"/></g>
<g><path style="opacity:0.02" fill="#dddddd" d="M 65.5,130.5 C 66.9313,131.78 67.5979,133.447 67.5,135.5C 65.7868,134.365 65.1201,132.698 65.5,130.5 Z"/></g>
<g><path style="opacity:0.22" fill="#bdbdbd" d="M 67.5,135.5 C 68.9313,136.78 69.5979,138.447 69.5,140.5C 68.0687,139.22 67.4021,137.553 67.5,135.5 Z"/></g>
<g><path style="opacity:0.231" fill="#bfbfbf" d="M 156.5,139.5 C 156.34,141.153 155.674,142.486 154.5,143.5C 154.229,141.62 154.896,140.287 156.5,139.5 Z"/></g>
<g><path style="opacity:0.012" fill="#e3e3e3" d="M 71.5,143.5 C 72.4013,144.29 73.0679,145.29 73.5,146.5C 71.9519,146.179 71.2852,145.179 71.5,143.5 Z"/></g>
<g><path style="opacity:0.004" fill="#c4c4c4" d="M 149.5,149.5 C 149.573,151.027 148.906,152.027 147.5,152.5C 147.427,150.973 148.094,149.973 149.5,149.5 Z"/></g>
<g><path style="opacity:0.051" fill="#dbdbdb" d="M 147.5,152.5 C 147.167,153.5 146.5,154.167 145.5,154.5C 145.5,153.167 146.167,152.5 147.5,152.5 Z"/></g>
<g><path style="opacity:0.651" fill="#8e8e8e" d="M 80.5,154.5 C 82.0269,154.427 83.0269,155.094 83.5,156.5C 81.9731,156.573 80.9731,155.906 80.5,154.5 Z"/></g>
<g><path style="opacity:0.38" fill="#a5a5a5" d="M 84.5,157.5 C 86.0269,157.427 87.0269,158.094 87.5,159.5C 85.9731,159.573 84.9731,158.906 84.5,157.5 Z"/></g>
<g><path style="opacity:0.11" fill="#d7d7d7" d="M 132.5,162.5 C 132.842,161.662 133.508,161.328 134.5,161.5C 134.591,163.698 133.925,164.031 132.5,162.5 Z"/></g>
<g><path style="opacity:0.761" fill="#8b8b8b" d="M 95.5,163.5 C 97.8984,163.259 99.8984,163.926 101.5,165.5C 99.2143,165.405 97.2143,164.738 95.5,163.5 Z"/></g>
<g><path style="opacity:0.016" fill="#bbbbbb" d="M 131.5,162.5 C 130.365,164.213 128.698,164.88 126.5,164.5C 127.93,163.463 129.597,162.796 131.5,162.5 Z"/></g>
<g><path style="opacity:0.259" fill="#969696" d="M 89.5,165.5 C 88.1001,166.1 87.1001,167.1 86.5,168.5C 86.5,167.167 86.5,165.833 86.5,164.5C 87.791,164.263 88.791,164.596 89.5,165.5 Z"/></g>
<g><path style="opacity:0.999" fill="#0e0e0e" d="M 89.5,165.5 C 93.3517,166.605 97.0184,167.938 100.5,169.5C 104.239,170.922 108.239,171.589 112.5,171.5C 115.025,171.497 117.359,171.163 119.5,170.5C 125.214,169.318 130.881,167.651 136.5,165.5C 138.03,172.459 139.363,179.459 140.5,186.5C 140.5,190.833 140.5,195.167 140.5,199.5C 122.338,200.662 104.005,200.829 85.5,200C 83.1615,196.421 82.8281,192.587 84.5,188.5C 85.8836,183.056 86.5503,177.389 86.5,171.5C 86.5,170.5 86.5,169.5 86.5,168.5C 87.1001,167.1 88.1001,166.1 89.5,165.5 Z"/></g>
<g><path style="opacity:0.733" fill="#838383" d="M 103.5,165.5 C 109.833,165.5 116.167,165.5 122.5,165.5C 116.158,168.058 109.825,168.058 103.5,165.5 Z"/></g>
<g><path style="opacity:0.682" fill="#969696" d="M 140.5,186.5 C 139.363,179.459 138.03,172.459 136.5,165.5C 137.238,163.24 138.238,163.073 139.5,165C 139.167,165.333 138.833,165.667 138.5,166C 139.062,171.742 140.062,177.408 141.5,183C 140.663,184.011 140.33,185.178 140.5,186.5 Z"/></g>
<g><path style="opacity:0.318" fill="#a3a3a3" d="M 100.5,169.5 C 106.81,170.19 113.143,170.524 119.5,170.5C 117.359,171.163 115.025,171.497 112.5,171.5C 108.239,171.589 104.239,170.922 100.5,169.5 Z"/></g>
<g><path style="opacity:0.733" fill="#878787" d="M 86.5,171.5 C 86.5503,177.389 85.8836,183.056 84.5,188.5C 84.7135,186.856 84.3802,185.356 83.5,184C 84.6432,179.765 85.6432,175.599 86.5,171.5 Z"/></g>
<g><path style="opacity:0.502" fill="#a3a3a3" d="M 140.5,186.5 C 141.23,190.031 141.896,193.697 142.5,197.5C 142.145,198.522 141.478,199.189 140.5,199.5C 140.5,195.167 140.5,190.833 140.5,186.5 Z"/></g>
</svg>
